<svg width="96" height="12" viewBox="0 0 96 12" fill="none" xmlns="http://www.w3.org/2000/svg">
<path d="M10.608 0C10.7253 0 10.8267 0.0426668 10.912 0.128C10.9973 0.213334 11.04 0.314667 11.04 0.432V2.864C11.04 2.98133 10.9973 3.08267 10.912 3.168C10.8267 3.25333 10.7253 3.296 10.608 3.296H4.32V4.32H9.568C9.68533 4.32 9.78667 4.36267 9.872 4.448C9.95733 4.53333 10 4.63467 10 4.752V7.168C10 7.28533 9.95733 7.38667 9.872 7.472C9.78667 7.55733 9.68533 7.6 9.568 7.6H4.32V10.768C4.32 10.8853 4.27733 10.9867 4.192 11.072C4.10667 11.1573 4.00533 11.2 3.888 11.2H0.432C0.314667 11.2 0.213333 11.1573 0.128 11.072C0.0426667 10.9867 0 10.8853 0 10.768V0.432C0 0.314667 0.0426667 0.213334 0.128 0.128C0.213333 0.0426668 0.314667 0 0.432 0H10.608Z" fill="white"/>
<path d="M17.5138 11.36C15.7218 11.36 14.2978 10.9707 13.2418 10.192C12.1964 9.41333 11.6737 8.19733 11.6737 6.544V0.432C11.6737 0.314667 11.7164 0.213334 11.8018 0.128C11.8871 0.0426668 11.9884 0 12.1058 0H15.4497C15.5671 0 15.6684 0.0426668 15.7538 0.128C15.8391 0.213334 15.8818 0.314667 15.8818 0.432V6.8C15.8818 7.23733 16.0258 7.57333 16.3138 7.808C16.6124 8.04267 17.0124 8.16 17.5138 8.16C18.0151 8.16 18.4097 8.04267 18.6978 7.808C18.9964 7.57333 19.1458 7.23733 19.1458 6.8V0.432C19.1458 0.314667 19.1884 0.213334 19.2738 0.128C19.3591 0.0426668 19.4604 0 19.5778 0H22.9218C23.0391 0 23.1404 0.0426668 23.2258 0.128C23.3111 0.213334 23.3538 0.314667 23.3538 0.432V6.544C23.3538 8.19733 22.8258 9.41333 21.7698 10.192C20.7244 10.9707 19.3057 11.36 17.5138 11.36Z" fill="white"/>
<path d="M36.1795 10.704C36.2008 10.7467 36.2115 10.7947 36.2115 10.848C36.2115 10.944 36.1742 11.0293 36.0995 11.104C36.0355 11.168 35.9555 11.2 35.8595 11.2H32.2275C32.0782 11.2 31.9395 11.1627 31.8115 11.088C31.6942 11.0133 31.6088 10.9173 31.5555 10.8L30.1475 7.632H28.8035V10.768C28.8035 10.8853 28.7608 10.9867 28.6755 11.072C28.5902 11.1573 28.4888 11.2 28.3715 11.2H24.9155C24.7982 11.2 24.6968 11.1573 24.6115 11.072C24.5262 10.9867 24.4835 10.8853 24.4835 10.768V0.432C24.4835 0.314667 24.5262 0.213334 24.6115 0.128C24.6968 0.0426668 24.7982 0 24.9155 0H31.1395C32.0995 0 32.9368 0.154667 33.6515 0.464001C34.3768 0.773334 34.9315 1.22133 35.3155 1.808C35.6995 2.39467 35.8915 3.08267 35.8915 3.872C35.8915 5.32267 35.3315 6.37333 34.2115 7.024L36.1795 10.704ZM30.8035 4.672C31.0382 4.672 31.2195 4.59733 31.3475 4.448C31.4755 4.288 31.5395 4.09067 31.5395 3.856C31.5395 3.62133 31.4755 3.41867 31.3475 3.248C31.2302 3.06667 31.0488 2.976 30.8035 2.976H28.8035V4.672H30.8035Z" fill="white"/>
<path d="M48.4933 10.704C48.5146 10.7467 48.5252 10.7947 48.5252 10.848C48.5252 10.944 48.4879 11.0293 48.4132 11.104C48.3493 11.168 48.2693 11.2 48.1733 11.2H44.5413C44.3919 11.2 44.2533 11.1627 44.1253 11.088C44.0079 11.0133 43.9226 10.9173 43.8693 10.8L42.4613 7.632H41.1172V10.768C41.1172 10.8853 41.0746 10.9867 40.9893 11.072C40.9039 11.1573 40.8026 11.2 40.6852 11.2H37.2292C37.1119 11.2 37.0106 11.1573 36.9253 11.072C36.8399 10.9867 36.7972 10.8853 36.7972 10.768V0.432C36.7972 0.314667 36.8399 0.213334 36.9253 0.128C37.0106 0.0426668 37.1119 0 37.2292 0H43.4533C44.4132 0 45.2506 0.154667 45.9653 0.464001C46.6906 0.773334 47.2453 1.22133 47.6292 1.808C48.0132 2.39467 48.2052 3.08267 48.2052 3.872C48.2052 5.32267 47.6452 6.37333 46.5252 7.024L48.4933 10.704ZM43.1172 4.672C43.3519 4.672 43.5332 4.59733 43.6613 4.448C43.7892 4.288 43.8532 4.09067 43.8532 3.856C43.8532 3.62133 43.7892 3.41867 43.6613 3.248C43.5439 3.06667 43.3626 2.976 43.1172 2.976H41.1172V4.672H43.1172Z" fill="white"/>
<path d="M60.311 0C60.407 0 60.487 0.0373335 60.551 0.112C60.6257 0.176 60.663 0.250667 60.663 0.336C60.663 0.4 60.647 0.464 60.615 0.528L56.583 7.2V10.768C56.583 10.8853 56.5403 10.9867 56.455 11.072C56.3697 11.1573 56.2683 11.2 56.151 11.2H52.743C52.6257 11.2 52.5243 11.1573 52.439 11.072C52.3537 10.9867 52.311 10.8853 52.311 10.768V7.2L48.295 0.528C48.263 0.464 48.247 0.405334 48.247 0.352C48.247 0.256 48.279 0.176 48.343 0.112C48.4177 0.0373335 48.503 0 48.599 0H51.975C52.2737 0 52.4923 0.122667 52.631 0.368L54.439 3.536L56.295 0.400001C56.455 0.133334 56.679 0 56.967 0H60.311Z" fill="white"/>
<path d="M60.9429 8.04871C61.2303 8.14821 61.5833 7.89924 61.7323 7.49275C61.8808 7.0863 61.7683 6.67583 61.4808 6.57685C61.1933 6.47691 60.8399 6.72587 60.6914 7.13233C60.5429 7.53879 60.6554 7.9492 60.9429 8.04871Z" fill="#CF157A"/>
<path d="M63.3111 8.94908C63.5291 9.24205 64.0396 9.22706 64.451 8.91609C64.8625 8.60511 65.019 8.11517 64.801 7.8227C64.583 7.52973 64.0725 7.54472 63.6611 7.85569C63.2496 8.16667 63.0931 8.65612 63.3111 8.94908Z" fill="#CF157A"/>
<path d="M62.3103 7.94819C62.6032 8.16615 63.0927 8.00967 63.4036 7.59823C63.7146 7.18675 63.7291 6.67626 63.4366 6.45833C63.1437 6.24037 62.6542 6.39685 62.3432 6.80829C62.0318 7.21928 62.0173 7.72972 62.3103 7.94819Z" fill="#CF157A"/>
<path d="M61.9413 8.27021C61.3218 8.42519 61.1089 8.36119 60.6909 8.37919C60.2615 8.3982 59.8225 8.75566 59.9115 9.10914C60.0565 9.6831 60.6379 9.87508 61.0014 10.2585C61.3844 10.6215 61.5769 11.2034 62.1508 11.3484C62.5037 11.4374 62.8612 10.9984 62.8802 10.5695C62.8987 10.1515 62.8342 9.93806 62.9892 9.31916C63.0607 9.03319 62.9497 8.76871 62.7282 8.53222C62.4918 8.30972 62.2272 8.19872 61.9413 8.27021Z" fill="#CF157A"/>
<path d="M63.7666 9.52706C63.3602 9.67556 63.1112 10.029 63.2107 10.3165C63.3102 10.604 63.7201 10.7165 64.1266 10.568C64.533 10.4195 64.782 10.066 64.6825 9.77854C64.5835 9.49156 64.1731 9.37856 63.7666 9.52706Z" fill="#CF157A"/>
<path d="M85.3711 0H87.0193L90.3158 5.30281H90.4551L93.7516 0H95.3999L91.1052 6.67844V11.36H89.6658V6.67844L85.3711 0Z" fill="white"/>
<path fill-rule="evenodd" clip-rule="evenodd" d="M67.3999 11.36V0H71.4161C72.3485 0 73.1107 0.160859 73.7027 0.482578C74.2986 0.800599 74.7397 1.23141 75.026 1.775C75.3123 2.31859 75.4555 2.92505 75.4555 3.59438C75.4555 4.2637 75.3123 4.872 75.026 5.4193C74.7435 5.96659 74.3063 6.40294 73.7143 6.72836C73.1224 7.05008 72.364 7.21094 71.4393 7.21094H68.8392V11.36H67.3999ZM72.9308 5.67445C72.5439 5.88523 72.0313 5.99062 71.3929 5.99062H68.8392V1.22031H71.3696C72.0158 1.22031 72.5342 1.32385 72.925 1.53094C73.3158 1.73432 73.5983 2.01536 73.7724 2.37406C73.9504 2.73276 74.0393 3.13953 74.0393 3.59438C74.0393 4.04922 73.9504 4.45784 73.7724 4.82023C73.5983 5.17893 73.3178 5.46367 72.9308 5.67445Z" fill="white"/>
<path fill-rule="evenodd" clip-rule="evenodd" d="M77.0486 11.36H75.5396L79.904 0H81.3897L85.7541 11.36H84.2452L83.0502 8.14281H78.2435L77.0486 11.36ZM80.6004 1.79719H80.6933L82.597 6.9225H78.6968L80.6004 1.79719Z" fill="white"/>
</svg>
