<svg width="118" height="14" viewBox="0 0 118 14" fill="none" xmlns="http://www.w3.org/2000/svg">
<path d="M13.0732 0C13.2178 0 13.3427 0.0525823 13.4479 0.157747C13.5531 0.262911 13.6056 0.387794 13.6056 0.532395V3.52958C13.6056 3.67418 13.5531 3.79906 13.4479 3.90423C13.3427 4.00939 13.2178 4.06197 13.0732 4.06197H5.32394V5.32394H11.7915C11.9361 5.32394 12.061 5.37653 12.1662 5.48169C12.2714 5.58685 12.3239 5.71174 12.3239 5.85634V8.8338C12.3239 8.9784 12.2714 9.10329 12.1662 9.20845C12.061 9.31362 11.9361 9.3662 11.7915 9.3662H5.32394V13.2704C5.32394 13.415 5.27136 13.5399 5.1662 13.6451C5.06103 13.7502 4.93615 13.8028 4.79155 13.8028H0.532394C0.387793 13.8028 0.262911 13.7502 0.157746 13.6451C0.0525822 13.5399 0 13.415 0 13.2704V0.532395C0 0.387794 0.0525822 0.262911 0.157746 0.157747C0.262911 0.0525823 0.387793 0 0.532394 0H13.0732Z" fill="white"/>
<path d="M21.5838 14C19.3754 14 17.6205 13.5202 16.3191 12.5606C15.0308 11.6009 14.3867 10.1023 14.3867 8.06479V0.532395C14.3867 0.387794 14.4392 0.262911 14.5444 0.157747C14.6496 0.0525823 14.7745 0 14.9191 0H19.0402C19.1848 0 19.3097 0.0525823 19.4148 0.157747C19.52 0.262911 19.5726 0.387794 19.5726 0.532395V8.38028C19.5726 8.91925 19.75 9.33333 20.105 9.62254C20.473 9.91174 20.966 10.0563 21.5838 10.0563C22.2017 10.0563 22.6881 9.91174 23.043 9.62254C23.4111 9.33333 23.5951 8.91925 23.5951 8.38028V0.532395C23.5951 0.387794 23.6477 0.262911 23.7529 0.157747C23.858 0.0525823 23.9829 0 24.1275 0H28.2486C28.3932 0 28.5181 0.0525823 28.6233 0.157747C28.7284 0.262911 28.781 0.387794 28.781 0.532395V8.06479C28.781 10.1023 28.1303 11.6009 26.8289 12.5606C25.5407 13.5202 23.7923 14 21.5838 14Z" fill="white"/>
<path d="M44.5874 13.1915C44.6137 13.2441 44.6268 13.3033 44.6268 13.369C44.6268 13.4873 44.5808 13.5925 44.4888 13.6845C44.4099 13.7634 44.3114 13.8028 44.193 13.8028H39.717C39.5329 13.8028 39.3621 13.7568 39.2043 13.6648C39.0597 13.5728 38.9545 13.4545 38.8888 13.3099L37.1536 9.40563H35.4973V13.2704C35.4973 13.415 35.4447 13.5399 35.3395 13.6451C35.2344 13.7502 35.1095 13.8028 34.9649 13.8028H30.7057C30.5611 13.8028 30.4362 13.7502 30.3311 13.6451C30.2259 13.5399 30.1733 13.415 30.1733 13.2704V0.532395C30.1733 0.387794 30.2259 0.262911 30.3311 0.157747C30.4362 0.0525823 30.5611 0 30.7057 0H38.3761C39.5592 0 40.5912 0.190611 41.4719 0.571832C42.3658 0.953052 43.0494 1.50516 43.5226 2.22817C43.9959 2.95117 44.2325 3.79906 44.2325 4.77183C44.2325 6.55962 43.5423 7.85446 42.1621 8.65634L44.5874 13.1915ZM37.9621 5.75775C38.2513 5.75775 38.4747 5.66573 38.6325 5.48169C38.7902 5.28451 38.8691 5.04132 38.8691 4.75211C38.8691 4.46291 38.7902 4.21315 38.6325 4.00282C38.4879 3.77934 38.2644 3.66761 37.9621 3.66761H35.4973V5.75775H37.9621Z" fill="white"/>
<path d="M59.7628 13.1915C59.7891 13.2441 59.8022 13.3033 59.8022 13.369C59.8022 13.4873 59.7562 13.5925 59.6642 13.6845C59.5853 13.7634 59.4867 13.8028 59.3684 13.8028H54.8924C54.7083 13.8028 54.5375 13.7568 54.3797 13.6648C54.2351 13.5728 54.1299 13.4545 54.0642 13.3099L52.329 9.40563H50.6727V13.2704C50.6727 13.415 50.6201 13.5399 50.5149 13.6451C50.4098 13.7502 50.2849 13.8028 50.1403 13.8028H45.8811C45.7365 13.8028 45.6116 13.7502 45.5065 13.6451C45.4013 13.5399 45.3487 13.415 45.3487 13.2704V0.532395C45.3487 0.387794 45.4013 0.262911 45.5065 0.157747C45.6116 0.0525823 45.7365 0 45.8811 0H53.5515C54.7346 0 55.7666 0.190611 56.6473 0.571832C57.5412 0.953052 58.2248 1.50516 58.698 2.22817C59.1713 2.95117 59.4079 3.79906 59.4079 4.77183C59.4079 6.55962 58.7177 7.85446 57.3374 8.65634L59.7628 13.1915ZM53.1374 5.75775C53.4266 5.75775 53.6501 5.66573 53.8079 5.48169C53.9656 5.28451 54.0445 5.04132 54.0445 4.75211C54.0445 4.46291 53.9656 4.21315 53.8079 4.00282C53.6633 3.77934 53.4398 3.66761 53.1374 3.66761H50.6727V5.75775H53.1374Z" fill="white"/>
<path d="M74.3269 0C74.4452 0 74.5438 0.0460096 74.6227 0.138029C74.7147 0.216902 74.7607 0.308921 74.7607 0.414085C74.7607 0.492958 74.741 0.571831 74.7016 0.650704L69.7326 8.87324V13.2704C69.7326 13.415 69.68 13.5399 69.5748 13.6451C69.4697 13.7502 69.3448 13.8028 69.2002 13.8028H65.0002C64.8556 13.8028 64.7307 13.7502 64.6255 13.6451C64.5204 13.5399 64.4678 13.415 64.4678 13.2704V8.87324L59.5185 0.650704C59.479 0.571831 59.4593 0.499531 59.4593 0.433803C59.4593 0.315493 59.4988 0.216902 59.5776 0.138029C59.6697 0.0460096 59.7748 0 59.8931 0H64.0537C64.4218 0 64.6912 0.151174 64.8621 0.453521L67.0903 4.35775L69.3776 0.492958C69.5748 0.164319 69.8509 0 70.2058 0H74.3269Z" fill="white"/>
<path d="M75.1056 9.91919C75.4599 10.0418 75.8949 9.73498 76.0786 9.23403C76.2616 8.73312 76.1229 8.22725 75.7686 8.10528C75.4143 7.98211 74.9787 8.28892 74.7957 8.78984C74.6127 9.29076 74.7514 9.79655 75.1056 9.91919Z" fill="#CF157A"/>
<path d="M78.0243 11.0288C78.2929 11.3899 78.922 11.3714 79.4291 10.9881C79.9362 10.6049 80.129 10.0011 79.8604 9.64065C79.5918 9.2796 78.9626 9.29807 78.4556 9.68131C77.9485 10.0646 77.7556 10.6678 78.0243 11.0288Z" fill="#CF157A"/>
<path d="M76.7908 9.7953C77.1519 10.0639 77.7551 9.87107 78.1383 9.36401C78.5215 8.8569 78.5394 8.22778 78.1789 7.95921C77.8179 7.69059 77.2147 7.88344 76.8315 8.3905C76.4476 8.897 76.4297 9.52607 76.7908 9.7953Z" fill="#CF157A"/>
<path d="M76.3361 10.1922C75.5727 10.3832 75.3102 10.3043 74.7952 10.3265C74.2659 10.3499 73.7249 10.7904 73.8346 11.2261C74.0132 11.9334 74.7298 12.17 75.1778 12.6425C75.6497 13.0898 75.887 13.807 76.5942 13.9857C77.0292 14.0954 77.4698 13.5544 77.4932 13.0258C77.516 12.5107 77.4365 12.2476 77.6275 11.4849C77.7156 11.1325 77.5788 10.8065 77.3059 10.5151C77.0145 10.2409 76.6885 10.1041 76.3361 10.1922Z" fill="#CF157A"/>
<path d="M78.5856 11.7411C78.0847 11.9241 77.7779 12.3597 77.9005 12.714C78.0231 13.0683 78.5283 13.2069 79.0292 13.0239C79.5301 12.8409 79.837 12.4053 79.7144 12.051C79.5924 11.6973 79.0865 11.5581 78.5856 11.7411Z" fill="#CF157A"/>
<path d="M105.211 0H107.242L111.305 6.53516H111.476L115.539 0H117.57L112.277 8.23047V14H110.504V8.23047L105.211 0Z" fill="white"/>
<path fill-rule="evenodd" clip-rule="evenodd" d="M83.0632 14V0H88.0128C89.1619 0 90.1013 0.198242 90.8308 0.594726C91.5651 0.986654 92.1087 1.51758 92.4616 2.1875C92.8144 2.85742 92.9909 3.60482 92.9909 4.42969C92.9909 5.25456 92.8144 6.00423 92.4616 6.67871C92.1135 7.35319 91.5747 7.89095 90.8451 8.29199C90.1156 8.68848 89.181 8.88672 88.0414 8.88672H84.8371V14H83.0632ZM89.8795 6.99316C89.4027 7.25293 88.7709 7.38281 87.9841 7.38281H84.8371V1.50391H87.9555C88.7518 1.50391 89.3908 1.63151 89.8724 1.88672C90.354 2.13737 90.7021 2.48372 90.9167 2.92578C91.136 3.36784 91.2457 3.86914 91.2457 4.42969C91.2457 4.99023 91.136 5.49381 90.9167 5.94043C90.7021 6.38249 90.3564 6.7334 89.8795 6.99316Z" fill="white"/>
<path fill-rule="evenodd" clip-rule="evenodd" d="M94.9542 14H93.0946L98.4732 0H100.304L105.683 14H103.823L102.351 10.0352H96.4269L94.9542 14ZM99.3315 2.21484H99.446L101.792 8.53125H96.9854L99.3315 2.21484Z" fill="white"/>
</svg>
