<svg width="520" height="15" viewBox="0 0 520 15" fill="none" xmlns="http://www.w3.org/2000/svg">
<path d="M20 0H0V15H3.33333C3.33333 15 1.8409 11.1967 3.33333 9.25C5.92887 5.86452 14.0711 5.86452 16.6667 9.25C18.1591 11.1967 16.6667 15 16.6667 15H20H23.3333C23.3333 15 21.8409 11.1967 23.3333 9.25C25.9289 5.86452 34.0711 5.86452 36.6667 9.25C38.1591 11.1967 36.6667 15 36.6667 15H40H43.3333C43.3333 15 41.8409 11.1967 43.3333 9.25C45.9289 5.86452 54.0711 5.86452 56.6667 9.25C58.1591 11.1967 56.6667 15 56.6667 15H60H63.3333C63.3333 15 61.8409 11.1967 63.3333 9.25C65.9289 5.86452 74.0711 5.86452 76.6667 9.25C78.1591 11.1967 76.6667 15 76.6667 15H80H83.3333C83.3333 15 81.8409 11.1967 83.3333 9.25C85.9289 5.86452 94.0711 5.86452 96.6667 9.25C98.1591 11.1967 96.6667 15 96.6667 15H100H103.333C103.333 15 101.841 11.1967 103.333 9.25C105.929 5.86452 114.071 5.86452 116.667 9.25C118.159 11.1967 116.667 15 116.667 15H120H123.333C123.333 15 121.841 11.1967 123.333 9.25C125.929 5.86452 134.071 5.86452 136.667 9.25C138.159 11.1967 136.667 15 136.667 15H140H143.333C143.333 15 141.841 11.1967 143.333 9.25C145.929 5.86452 154.071 5.86452 156.667 9.25C158.159 11.1967 156.667 15 156.667 15H160H163.333C163.333 15 161.841 11.1967 163.333 9.25C165.929 5.86452 174.071 5.86452 176.667 9.25C178.159 11.1967 176.667 15 176.667 15H180H183.333C183.333 15 181.841 11.1967 183.333 9.25C185.929 5.86452 194.071 5.86452 196.667 9.25C198.159 11.1967 196.667 15 196.667 15H200H203.333C203.333 15 201.841 11.1967 203.333 9.25C205.929 5.86452 214.071 5.86452 216.667 9.25C218.159 11.1967 216.667 15 216.667 15H220H223.333C223.333 15 221.841 11.1967 223.333 9.25C225.929 5.86452 234.071 5.86452 236.667 9.25C238.159 11.1967 236.667 15 236.667 15H240H243.333C243.333 15 241.841 11.1967 243.333 9.25C245.929 5.86452 254.071 5.86452 256.667 9.25C258.159 11.1967 256.667 15 256.667 15H260H263.333C263.333 15 261.841 11.1967 263.333 9.25C265.929 5.86452 274.071 5.86452 276.667 9.25C278.159 11.1967 276.667 15 276.667 15H280H283.333C283.333 15 281.841 11.1967 283.333 9.25C285.929 5.86452 294.071 5.86452 296.667 9.25C298.159 11.1967 296.667 15 296.667 15H300H303.333C303.333 15 301.841 11.1967 303.333 9.25C305.929 5.86452 314.071 5.86452 316.667 9.25C318.159 11.1967 316.667 15 316.667 15H320H323.333C323.333 15 321.841 11.1967 323.333 9.25C325.929 5.86452 334.071 5.86452 336.667 9.25C338.159 11.1967 336.667 15 336.667 15H340H343.333C343.333 15 341.841 11.1967 343.333 9.25C345.929 5.86452 354.071 5.86452 356.667 9.25C358.159 11.1967 356.667 15 356.667 15H360H363.333C363.333 15 361.841 11.1967 363.333 9.25C365.929 5.86452 374.071 5.86452 376.667 9.25C378.159 11.1967 376.667 15 376.667 15H380H383.333C383.333 15 381.841 11.1967 383.333 9.25C385.929 5.86452 394.071 5.86452 396.667 9.25C398.159 11.1967 396.667 15 396.667 15H400H403.333C403.333 15 401.841 11.1967 403.333 9.25C405.929 5.86452 414.071 5.86452 416.667 9.25C418.159 11.1967 416.667 15 416.667 15H420H423.333C423.333 15 421.841 11.1967 423.333 9.25C425.929 5.86452 434.071 5.86452 436.667 9.25C438.159 11.1967 436.667 15 436.667 15H440H443.333C443.333 15 441.841 11.1967 443.333 9.25C445.929 5.86452 454.071 5.86452 456.667 9.25C458.159 11.1967 456.667 15 456.667 15H460H463.333C463.333 15 461.841 11.1967 463.333 9.25C465.929 5.86452 474.071 5.86452 476.667 9.25C478.159 11.1967 476.667 15 476.667 15H480H483.333C483.333 15 481.841 11.1967 483.333 9.25C485.929 5.86452 494.071 5.86452 496.667 9.25C498.159 11.1967 496.667 15 496.667 15H500H503.333C503.333 15 501.841 11.1967 503.333 9.25C505.929 5.86452 514.071 5.86452 516.667 9.25C518.159 11.1967 516.667 15 516.667 15H520V0H500H480H460H440H420H400H380H360H340H320H300H280H260H240H220H200H180H160H140H120H100H80H60H40H20Z" fill="white"/>
</svg>
