<svg width="17" height="18" viewBox="0 0 17 18" fill="none" xmlns="http://www.w3.org/2000/svg">
<path d="M7.27996 8.80098C6.98704 8.50567 6.51218 8.50567 6.21939 8.80098C5.92647 9.09629 5.92647 9.57504 6.21939 9.87036L7.34438 11.0046C7.485 11.1464 7.67573 11.2261 7.8746 11.2261C8.07347 11.2261 8.26433 11.1464 8.40495 11.0046L11.4049 7.97996C11.6978 7.68465 11.6978 7.20591 11.4049 6.91058C11.1121 6.61527 10.6372 6.61527 10.3443 6.91058L7.8746 9.4005L7.27996 8.80098Z" fill="#00CD52"/>
<path fill-rule="evenodd" clip-rule="evenodd" d="M9.08541 0.162252C8.54902 -0.0540839 7.95062 -0.0540839 7.41426 0.162252L1.50003 2.54745C1.14646 2.69009 0.79376 2.93516 0.521577 3.24077C0.254768 3.54035 0 3.97439 0 4.49471V8.9577C0 12.2488 1.61491 14.4239 3.38139 15.7964C5.12677 17.1521 7.0405 17.7459 7.77239 17.9378C8.08791 18.0207 8.41209 18.0207 8.72763 17.9378C9.45939 17.7459 11.3731 17.1521 13.1186 15.7964C14.8852 14.424 16.5 12.2488 16.5 8.9577V4.49471C16.5 3.97439 16.2453 3.54037 15.9784 3.24077C15.7062 2.93516 15.3536 2.69007 15 2.54745L9.08541 0.162252ZM7.97135 1.56649C8.15014 1.4943 8.34954 1.4943 8.52832 1.56649L14.4425 3.9517C14.5815 4.00782 14.7433 4.11781 14.862 4.25127C14.9865 4.3909 14.9996 4.48004 14.9996 4.49473V8.95772C14.9996 11.6689 13.6975 13.4371 12.2027 14.5981C10.6869 15.7756 8.995 16.3048 8.34948 16.474C8.28168 16.492 8.21739 16.492 8.14959 16.474C7.50423 16.3048 5.81235 15.7756 4.29635 14.5981C2.80159 13.4369 1.49943 11.6687 1.49943 8.95772V4.49473C1.49943 4.48004 1.51261 4.39089 1.63704 4.25127C1.75582 4.11781 1.91741 4.00782 2.05653 3.9517L7.97135 1.56649Z" fill="#00CD52"/>
</svg>
